<svg xmlns="http://www.w3.org/2000/svg" viewBox="0 0 224.36 431.33"><defs><style>.cls-1{fill:#d57d6a;}.cls-2{fill:#edc462;}.cls-3{fill:#79bac3;}.cls-4{fill:#cc5847;}.cls-5{fill:#df9e8f;}.cls-6{fill:#55a4ad;}.cls-7{fill:#df9c40;}.cls-8{fill:#f6dd88;}.cls-9{fill:#aad2e0;}.cls-10{fill:#fff;}.cls-11{fill:#b55418;}.cls-12{fill:#38575a;}.cls-13{fill:#63281b;}</style></defs><g id="Layer_2" data-name="Layer 2"><g id="OBJECTS"><path class="cls-1" d="M177.36,80.69c-26.94-19.83-62.23-23-102.07-9.13-22.11,7.7-36.82,20.31-43.72,37.51-8.55,21.3-4.71,50.67,10.54,80.6a29.54,29.54,0,0,0,13.75,7.55c16.65,4.22,32.7-5.87,46.85-14.77l4.81-3c11.27-6.93,26.33-15.45,42.88-20,25.13-6.85,47.59-2.94,61.63,10.73a59.33,59.33,0,0,1,9.85,12.87C221.93,139.39,205.5,101.4,177.36,80.69Z"/><path class="cls-2" d="M188.9,331.21a60.61,60.61,0,0,1-6.83,3.51A63.52,63.52,0,0,1,124.15,331c-2.93-1.71-5.79-3.64-8.56-5.5-5.33-3.58-10.84-7.29-16.89-9.51-14.91-5.48-29.22-1.8-38.61,2.25l-.61.27h0l-.68.31h0l-.48.24c-.71.35-1.4.72-2.09,1.1-.5.28-1,.58-1.5.88A316.47,316.47,0,0,1,41.13,351.3c-11.34,22.17-9.06,50.88,5.3,66.78,13,14.34,34.18,16.75,59.74,6.78C140.52,411.46,168.34,380,188.9,331.21Z"/><path class="cls-3" d="M220.16,210.2l0-.31-.09-.33c-.14-.46-.27-.92-.42-1.38-.8-2.53-1.65-5-2.55-7.28-.46-1.19-.94-2.34-1.41-3.43l-.48-1.08-.71-1.5c-6.46-13.11-15.66-21.24-27.33-24.15-8.25-2.07-17.58-1.93-28.53.42-12.88,2.76-26.25,8.17-39.75,16.08-3,1.77-6,3.66-9,5.49-5.09,3.18-10.35,6.47-15.81,9.27-9.27,4.75-26.53,11.27-43.08,5.09,1.39,2.13,2.81,4.18,4.23,6.12,15.74,21.51,17.27,52.33,4.54,91.64a68.53,68.53,0,0,1,10-3.3,76.3,76.3,0,0,1,10.92-2.14c.95-.09,1.92-.15,2.91-.19a52.89,52.89,0,0,1,7.38.28c6.69.7,13.79,3.21,21.7,7.68,3.26,1.85,6.42,3.92,9.49,5.92,7.26,4.75,14.13,9.24,22.43,11.19,16.1,3.78,33.25-.47,47.06-11.66l.48-.42.13-.1v0h0l.16-.11.13-.1.31-.26,1.75-1.5c.73-.64,1.45-1.3,2.17-2l.23-.21c9.68-27.62,17.34-59.79,22.76-95.63C220,211.61,220.07,210.91,220.16,210.2Z"/><path class="cls-1" d="M34.64,77.4C55.18,74.29,63,51.26,60,31.17,58.54,21.7,54.82,13.4,49.51,7.81a24.16,24.16,0,0,0-22-7.49C13.7,2.42,7.24,11.94,4.26,19.55c-5.93,15.15-3,35.78,6.72,48C15.35,73,23,79.17,34.64,77.4Z"/><path class="cls-2" d="M71.76,34.68c1.68,11.1,8.89,22.23,20.73,20.43,13-2,18-16.63,16-29.43-1.67-11-8.66-21.4-20.47-19.59C74.19,8.18,69.89,22.38,71.76,34.68Z"/><path class="cls-3" d="M121.1,34.68c1.38,9.07,7,18.17,16.22,17.86a14,14,0,0,0,1.68-.16c11.24-1.71,15.52-14.41,13.84-25.5-1.45-9.56-7.48-18.54-17.68-17C123.19,11.73,119.48,24,121.1,34.68Z"/><path class="cls-1" d="M180.46,60.77C191,59.18,195,47.29,193.39,36.91A22.42,22.42,0,0,0,188,24.84a12,12,0,0,0-11.11-3.79c-7,1.07-10.35,5.93-11.87,9.82-3.08,7.86-1.58,18.57,3.48,24.9C170.71,58.54,174.58,61.67,180.46,60.77Z"/><path class="cls-2" d="M222.32,74.15c3.1-6.48,2.62-15.46-1.11-20.87a10.18,10.18,0,0,0-9.54-4.65c-9.3.74-12.83,10-12.17,18.35.59,7.49,4.87,15.22,12.75,14.64C217.85,81.17,220.82,77.31,222.32,74.15Z"/><path class="cls-4" d="M208.91,155.82c-7.68-2-13.69-6.17-20.81-9.12-12.35-5.1-24.83-7.39-38.14-5.56-19.17,2.62-34.18,15.48-52.9,20.3-23.26,6-42.41-6.53-46.11-30.33-3.08-19.8,2.7-39,13.28-55-16,7.76-27,18.8-32.66,32.94-8.55,21.3-4.71,50.67,10.54,80.6a29.54,29.54,0,0,0,13.75,7.55c16.65,4.22,32.7-5.87,46.85-14.77l4.81-3c11.27-6.93,26.33-15.45,42.88-20,25.13-6.85,47.59-2.94,61.63,10.73a59.33,59.33,0,0,1,9.85,12.87,164.74,164.74,0,0,0-2.15-26.9C216.27,157.41,212.34,156.72,208.91,155.82Z"/><path class="cls-5" d="M177.36,80.69c-24.14-17.77-55-22.14-89.82-12.88,11.34-.74,22.64-1.08,34.26.74,12.48,2,23.18,3.4,34.84,8.7,9.66,4.4,18.58,11.09,27.46,16.83a99.81,99.81,0,0,1,20.5,18A98.86,98.86,0,0,0,177.36,80.69Z"/><path class="cls-6" d="M189.7,291.73c-12.32,6.22-27.43,7-40.88,4.66C129.51,293,102.56,281,93.18,262.57c-9.05-17.75-10-41.93-.41-59.88-9.53,4.65-25.94,10.28-41.7,4.4,1.39,2.13,2.81,4.18,4.23,6.12,15.74,21.51,17.27,52.33,4.54,91.64a68.53,68.53,0,0,1,10-3.3,76.3,76.3,0,0,1,10.92-2.14c.95-.09,1.92-.15,2.91-.19a52.89,52.89,0,0,1,7.38.28c6.69.7,13.79,3.21,21.7,7.68,3.26,1.85,6.42,3.92,9.49,5.92,7.26,4.75,14.13,9.24,22.43,11.19,16.1,3.78,33.25-.47,47.06-11.66l.48-.42.13-.1v0h0l.16-.11.13-.1.31-.26,1.75-1.5c.73-.64,1.45-1.3,2.17-2l.23-.21q4.62-13.15,8.61-27.67A70.75,70.75,0,0,1,189.7,291.73Z"/><path class="cls-7" d="M106.17,424.86a114.12,114.12,0,0,0,34.56-21.52A87.4,87.4,0,0,1,121.4,409c-13.41,2.16-33.28,2.19-44.21-7.4-7.8-6.84-11.07-18.52-11-28.59a100.13,100.13,0,0,1,7.24-36.3A80.44,80.44,0,0,1,86,315.84l1.89-2.32c-10.81-1.13-20.68,1.71-27.75,4.76l-.61.27h0l-.68.31h0l-.48.24c-.71.35-1.4.72-2.09,1.1-.5.28-1,.58-1.5.88A316.47,316.47,0,0,1,41.13,351.3c-11.34,22.17-9.06,50.88,5.3,66.78C59.4,432.42,80.61,434.83,106.17,424.86Z"/><path class="cls-8" d="M161.63,380.24q15.24-20.55,27.27-49a60.61,60.61,0,0,1-6.83,3.51,63.26,63.26,0,0,1-51.08-.18c.62.84,1.23,1.59,1.79,2.21,4.79,5.38,12,6.21,18.73,6.92s15.78-1.94,18.55,6c2.55,7.31-3.05,17.3-5.72,24Q163,377,161.63,380.24Z"/><path class="cls-9" d="M219.69,208.18c-.8-2.53-1.65-5-2.55-7.28-.46-1.19-.94-2.34-1.41-3.43l-.48-1.08-.71-1.5c-6.46-13.11-15.66-21.24-27.33-24.15-8.25-2.07-17.58-1.93-28.53.42-12.88,2.76-26.25,8.17-39.75,16.08-2.44,1.44-4.88,2.95-7.28,4.44,13.25-5,27.2-10.23,41.6-10.73,11.72-.42,25.62-1.31,36.14,4.71,24.15,13.82,24.18,39.22,23.76,63.84q3.78-17.85,6.71-37.18c.11-.71.21-1.41.3-2.12l0-.31-.09-.33C220,209.1,219.84,208.64,219.69,208.18Z"/><path class="cls-4" d="M46.73,59.93c-13,4.6-31.42-3.46-35.25-17.57-2-7.23-3.33-15.59-3-23a61,61,0,0,1,.91-8.83,34.48,34.48,0,0,0-5.18,9.06c-5.93,15.15-3,35.78,6.72,48C15.35,73,23,79.17,34.64,77.4c13.88-2.1,22-13.3,24.79-26.53A32,32,0,0,1,46.73,59.93Z"/><path class="cls-4" d="M192.25,50.2a25.51,25.51,0,0,1-5.76,2.59c-5.07,1.4-10.59.1-13.58-4.4a30.52,30.52,0,0,1-4.83-14,59.05,59.05,0,0,1-.64-7.91A17.83,17.83,0,0,0,165,30.87c-3.08,7.86-1.58,18.57,3.48,24.9,2.22,2.77,6.09,5.9,12,5S190.32,55.61,192.25,50.2Z"/><path class="cls-5" d="M193.49,37.68c0-.25-.06-.51-.1-.77A22.42,22.42,0,0,0,188,24.84a12,12,0,0,0-11.11-3.79,15.39,15.39,0,0,0-3.57,1,24.55,24.55,0,0,1,12.51,5.74A31.62,31.62,0,0,1,193.49,37.68Z"/><path class="cls-5" d="M60.51,36.34c-.1-1.74-.28-3.46-.53-5.17C58.54,21.7,54.82,13.4,49.51,7.81a24.16,24.16,0,0,0-22-7.49A29.53,29.53,0,0,0,17.21,3.85a59.5,59.5,0,0,1,7.34-.38,30.5,30.5,0,0,1,12,2.27c9.82,4.14,16,11.13,20.37,20.86A51.82,51.82,0,0,1,60.51,36.34Z"/><path class="cls-7" d="M107.7,40.16c-2.92,3.23-6.71,6.21-9,7A16.23,16.23,0,0,1,82.29,43c-4.08-4.59-6.69-11.58-7.46-17.63a44.62,44.62,0,0,1-.15-10.07C71.55,20.81,70.75,28,71.76,34.68c1.68,11.1,8.89,22.23,20.73,20.43C100.59,53.88,105.57,47.72,107.7,40.16Z"/><path class="cls-7" d="M220.68,76.89A13.46,13.46,0,0,1,207,71.28c-3.38-5-4.36-12.82-3-19.21-3.61,3.6-5,9.46-4.56,14.91.59,7.49,4.87,15.22,12.75,14.64A11.37,11.37,0,0,0,220.68,76.89Z"/><path class="cls-8" d="M211.67,48.63a12.56,12.56,0,0,0-1.8.27c5.4,1.44,9.35,5.71,11.49,11.26,1,2.69,2,5.36,2.72,8.07.8-5.33-.19-11.06-2.87-15A10.19,10.19,0,0,0,211.67,48.63Z"/><path class="cls-8" d="M108.5,25.68c-1.67-11-8.66-21.4-20.47-19.59a17.75,17.75,0,0,0-10.75,5.58c2.45-.55,6-2.43,8.63-2.64a15.94,15.94,0,0,1,9.88,2.65,19.05,19.05,0,0,1,7.77,8.68c2,4.13,4.37,8,5.3,12.5A35.91,35.91,0,0,0,108.5,25.68Z"/><path class="cls-6" d="M151,42.62c-6,3.15-13.63,2.46-20.14-1.93-4.85-3.28-8.6-12.65-8.47-20.2a28.44,28.44,0,0,0-1.29,14.19c1.38,9.07,7,18.17,16.22,17.86a14,14,0,0,0,1.68-.16C144.82,51.49,148.78,47.65,151,42.62Z"/><path class="cls-9" d="M152.84,26.88c-1.45-9.56-7.48-18.54-17.68-17a15.38,15.38,0,0,0-9.31,4.86c2.39-1.2,5-2.82,7.57-3.1a16,16,0,0,1,10.44,3.1c5.34,4,8.19,11.83,9.25,19A31.83,31.83,0,0,0,152.84,26.88Z"/><path class="cls-10" d="M77.87,358.8c-.74-.7-2-.39-2.79-.47a7.4,7.4,0,0,1-2.26-.64,8.38,8.38,0,0,1-2-1.31c-.59-.54-1.08-1.41-1.88-1.63a.42.42,0,0,0-.44.21c-.43.89.28,2,.82,2.65a8.27,8.27,0,0,0,2.43,2.13,9.42,9.42,0,0,0,2.89,1.07c1.12.2,2.81.4,3.44-.79A1,1,0,0,0,77.87,358.8Z"/><path class="cls-10" d="M75.36,361.37c-.69-.42-1.57-.13-2.24-.18a5.21,5.21,0,0,1-2-.6,10.84,10.84,0,0,1-2-1.32,4.07,4.07,0,0,1-1.22-1.45c-.13-.29-.58-.42-.73-.07a2.44,2.44,0,0,0,.47,2.25,8.83,8.83,0,0,0,2.28,2.32,7.35,7.35,0,0,0,2.69,1.13c1.08.2,2.5.3,3.12-.79A1,1,0,0,0,75.36,361.37Z"/><path class="cls-10" d="M72.1,363.92a1,1,0,0,0-.54-.46l0,0-.08-.06a.51.51,0,0,0-.22-.11c-.12,0-.23-.09-.36-.12l-.28-.07-.12,0-.56-.26a5.29,5.29,0,0,1-.52-.29l-.08-.06h0l-.22-.19-.24-.18h0l-.24-.19a2.75,2.75,0,0,0-.26-.22,1.27,1.27,0,0,0-.43-.14.42.42,0,0,0-.5.32.81.81,0,0,0-.08.46,1.06,1.06,0,0,0,.12.34,2.69,2.69,0,0,0,.42.76,5.05,5.05,0,0,0,1.2,1.06,4.81,4.81,0,0,0,1.4.55,1.92,1.92,0,0,0,.53.06.91.91,0,0,0,.45-.14c-.09.06-.12.05,0,0a1,1,0,0,0,.7-.46l0,0A.35.35,0,0,0,72.1,363.92Z"/><path class="cls-10" d="M91,337c-4.39-7.88-18.62-8.68-22.41.21a10.36,10.36,0,0,0-.43,7.09c.91,3,2.52,5.47,2,8.71a.54.54,0,0,0,.92.48c3.33-3.45-1.2-8.3-1.22-12.13a8.29,8.29,0,0,1,7.32-8.14c4.25-.59,9.14.57,11.49,4.41A9.75,9.75,0,0,1,87.82,349a13.13,13.13,0,0,1-6.14,3.89c-1.87.68-5.2,2.23-4.28,4.76a.85.85,0,0,0,1.24.47c1-.63,1.61-1.61,2.66-2.17S83.78,355,85,354.4a13.57,13.57,0,0,0,5.32-4.53A12.12,12.12,0,0,0,91,337Z"/><path class="cls-10" d="M84.53,347.46a2.17,2.17,0,0,0-2.31-2.27,2.41,2.41,0,0,0-1.19.33,2.44,2.44,0,0,0-1-1.19,1.84,1.84,0,0,0-1.66-.07l-.06-.15a2,2,0,0,0-2.44-1.06,4,4,0,0,0-2.13,2.18,7.48,7.48,0,0,0-.54,3.65c.1,1.35.44,2.67.53,4a.37.37,0,0,0,.74,0,22.92,22.92,0,0,0-.14-2.75,11.89,11.89,0,0,1-.09-2.73,4.89,4.89,0,0,1,.87-2.43c.41-.54,1.35-1.39,2-.72a1.81,1.81,0,0,1,.37.65,2.57,2.57,0,0,0-.7,2.12,1.08,1.08,0,0,0,.75.93,1.14,1.14,0,0,0,1.2-.81,3.07,3.07,0,0,0,0-1.83c.71-.39,1.18.34,1.31,1.06a5.1,5.1,0,0,0-.78,1.4.58.58,0,0,0,.53.84c1,0,1.46-1,1.47-1.86v0a1.41,1.41,0,0,1,1.08-.38,1.16,1.16,0,0,1,1,.58c.21.46-.13,1-.42,1.3a18.14,18.14,0,0,1-2.81,2.51c-.48.37-1,.73-1.49,1.07A7.88,7.88,0,0,0,77.06,353a.39.39,0,0,0,.4.64,6.47,6.47,0,0,0,2.26-1.19c.67-.46,1.31-1,1.93-1.47a22.39,22.39,0,0,0,1.9-1.74A3.26,3.26,0,0,0,84.53,347.46Z"/><path class="cls-10" d="M64.92,343l-.08,0a1.13,1.13,0,0,0-.64-.42l-.56-.13a6.43,6.43,0,0,0-1.32-.05,10.83,10.83,0,0,0-1.12.1,2.14,2.14,0,0,0-.94.31,1,1,0,0,0-.35.37,1.12,1.12,0,0,0-.16.22.72.72,0,0,0,.13.83l.14.11a1.08,1.08,0,0,0,.3.26,1.73,1.73,0,0,0,.44.14,2.5,2.5,0,0,0,.77,0,9.17,9.17,0,0,0,1-.11,5,5,0,0,0,1.22-.24l.48-.2a1.08,1.08,0,0,0,.46-.3,1.94,1.94,0,0,0,.15-.24l.07-.05A.35.35,0,0,0,64.92,343Z"/><path class="cls-10" d="M67.56,333a1.47,1.47,0,0,0-.43-.74l-.4-.34a6.8,6.8,0,0,0-1.17-.67,4.18,4.18,0,0,0-1.27-.49,2.22,2.22,0,0,0-.81,0,2.37,2.37,0,0,0-.53.18.79.79,0,0,0-.52,1l.11.35a1.86,1.86,0,0,0,.58.75,4.11,4.11,0,0,0,1.16.68c.8.35,1.76.88,2.64.55A1,1,0,0,0,67.56,333Z"/><path class="cls-10" d="M74.9,326.5c0-.13,0-.26,0-.39A6,6,0,0,0,74.6,325c-.07-.27-.18-.53-.26-.79a2.6,2.6,0,0,0-.63-1.15,1.5,1.5,0,0,0-.72-.6l-.1,0a.39.39,0,0,0-.47,0,.47.47,0,0,0-.12.07,1.16,1.16,0,0,0-.58.65,2.81,2.81,0,0,0-.1.31,2.23,2.23,0,0,0,0,1.57,4.49,4.49,0,0,0,.47,1.16l.24.36.14.19a1.94,1.94,0,0,0,.59.55,1.82,1.82,0,0,0,.56.27,2.33,2.33,0,0,0,.37,0,1,1,0,0,0,.65-.28A1.25,1.25,0,0,0,74.9,326.5Z"/><path class="cls-10" d="M87.83,325.45a1.72,1.72,0,0,0,.11-1.24.94.94,0,0,0-.1-.23,1.38,1.38,0,0,0-.15-.43,1.15,1.15,0,0,0-.38-.38A.62.62,0,0,0,87,323a1.27,1.27,0,0,0-.84,0,1,1,0,0,0-.36.18,1.26,1.26,0,0,0-.31.14l-.32.27a1.6,1.6,0,0,0-.41.77,10.8,10.8,0,0,0-.4,1.08,4.69,4.69,0,0,0-.06.54,2.62,2.62,0,0,0,.08,1.11,1.25,1.25,0,0,0,1.83.68,2.39,2.39,0,0,0,.62-.53,4.23,4.23,0,0,0,.51-.71C87.55,326.17,87.68,325.8,87.83,325.45Z"/><path class="cls-10" d="M87.18,323.06l.13.11,0,0Z"/><path class="cls-10" d="M100,333.42a1.43,1.43,0,0,0-.17-1.05,1.94,1.94,0,0,0-2.28-.55,7.62,7.62,0,0,0-1.35.65,6.61,6.61,0,0,0-.89.6,2.44,2.44,0,0,0-1.13,1.5,1.23,1.23,0,0,0,.15.86,1.38,1.38,0,0,0,.73.52,2.31,2.31,0,0,0,1.57-.16,12.28,12.28,0,0,0,1.3-.54,7.52,7.52,0,0,0,1-.52,3.15,3.15,0,0,0,.61-.54A1.8,1.8,0,0,0,100,333.42Z"/><path class="cls-10" d="M101.47,345.76c.24.44,0-.08-.08-.18a1.35,1.35,0,0,0-.44-.45,2.5,2.5,0,0,0-.91-.41,7.21,7.21,0,0,0-1-.13,10,10,0,0,0-1.33-.07,3,3,0,0,0-.72.13,1.15,1.15,0,0,0-.32.14h0a1,1,0,0,0-.28.14,1,1,0,0,0-.3,1.28,1.77,1.77,0,0,0,.3.31,1.08,1.08,0,0,0,.36.31,2.49,2.49,0,0,0,.67.34,9.71,9.71,0,0,0,1.05.31,8.09,8.09,0,0,0,1.07.21,2.81,2.81,0,0,0,1.08-.06,1.63,1.63,0,0,0,.66-.41l.07-.06c.23-.34.25-.36.06-.07A1.11,1.11,0,0,0,101.47,345.76Z"/><path class="cls-10" d="M91.17,359.74a1.7,1.7,0,0,0,.17-.8,2.71,2.71,0,0,0-.08-.69,4.07,4.07,0,0,0-.43-.95,3.7,3.7,0,0,0-.64-.78l-.12-.12a1.64,1.64,0,0,0-.71-.38l-.27-.07a1.12,1.12,0,0,0-1.34,1.12c0,.12,0,.23,0,.35a2.64,2.64,0,0,0,.19.68c.13.38.29.74.45,1.1l-.16-.35a4.93,4.93,0,0,0,.36.77,3,3,0,0,0,.34.46,1.51,1.51,0,0,0,.5.31,1.31,1.31,0,0,0,.36.16,1,1,0,0,0,.55,0,1.06,1.06,0,0,0,.46-.29A.83.83,0,0,0,91,360,1,1,0,0,0,91.17,359.74Z"/><path class="cls-10" d="M194.57,114.87c-.42-4.21-1.73-8.2-4.76-11.26a19.32,19.32,0,0,0-9.89-5.25c-7.1-1.41-15,.77-19.68,6.42a21.07,21.07,0,0,0-4.66,10.69,20.39,20.39,0,0,0,.08,6,17.61,17.61,0,0,0,.72,2.86,5,5,0,0,0,1.51,2.47.71.71,0,0,0,1.2-.5,7.09,7.09,0,0,0-.35-2.08,20,20,0,0,1-.58-2.18,19.17,19.17,0,0,1-.3-4.72,18.88,18.88,0,0,1,2.63-8.65,17.41,17.41,0,0,1,16.06-8.2c6.86.37,13.25,4.66,14.79,11.57a32.35,32.35,0,0,1,.35,11.06,13.5,13.5,0,0,1-5.51,9.08c-3.17,2.51-7,4.73-11.18,4.49a14.41,14.41,0,0,1-5.92-1.93,24.6,24.6,0,0,0-5.44-2.69.63.63,0,0,0-.7.91c2.16,3.33,6.59,5.69,10.45,6.42,4.24.8,8.34-.61,11.9-2.9s6.8-5,8.31-9S195,119,194.57,114.87Z"/><path class="cls-10" d="M179.56,116.42a.76.76,0,0,0,.1-.37.84.84,0,0,0-.83-.84,45.73,45.73,0,0,0-11.55,3.27.82.82,0,0,0,0,1.56,19,19,0,0,0,3,.94c.29.07.59.12.88.17-.79.47-1.55,1-2.3,1.5-1.73,1.15-3.37,2.43-5,3.69s-3.2,2.54-4.77,3.85a40.74,40.74,0,0,0-3.74,3.24,4.24,4.24,0,0,0-1.71-.19l-2.24,0c-1.46,0-2.82,0-4,1s-2.14,1.72-3.18,2.62-2.6,1.81-2.84,3.21a.37.37,0,0,0,0,.25.83.83,0,0,0,.31.68,4.14,4.14,0,0,0,2,.67l1.85.28a14.59,14.59,0,0,0,1.86.16,2.68,2.68,0,0,0,.73-.1,4.79,4.79,0,0,0-.34.68,9.12,9.12,0,0,0-.53,1.52,11.21,11.21,0,0,0-.39,3.41,1.11,1.11,0,0,0,1.6,1c1.34-.64,2.65-1.34,3.94-2.08l1.88-1.13c.31-.19.63-.38.93-.59,1.28-.87,1.76-2.86,1.86-4.3,0-.6.08-1.2.1-1.8,0-1.21,0-2.4-.08-3.61a1.92,1.92,0,0,0-.09-.4c1.17-.88,2.25-2,3.36-2.88,1.57-1.31,3.17-2.58,4.77-3.84s3.17-2.4,4.74-3.61c.8-.63,1.62-1.24,2.4-1.89l.45-.37.15.41c.17.48.33,1,.46,1.46a22.38,22.38,0,0,1,.6,3,1,1,0,0,0,.69.9.92.92,0,0,0,1.05-.43c1-1.87,1.85-3.8,2.63-5.75a29.61,29.61,0,0,0,1-2.93A4.58,4.58,0,0,0,179.56,116.42Zm-30.85,24.16a4.26,4.26,0,0,0-.5-.32l-.38-.13a16.12,16.12,0,0,0-2.06-.35c-.52-.05-1.07-.14-1.63-.19.39-.34.76-.7,1.11-1l1.64-1.37a6.77,6.77,0,0,1,1.4-1.11,9.37,9.37,0,0,1,3.54-.48,15,15,0,0,0,2.9-.12l.08.06-.63.56a.36.36,0,0,0-.23-.08c-.48,0-.95,0-1.43,0s-1,.07-1.48.12a13.3,13.3,0,0,0-1.43.2,2.65,2.65,0,0,0-1.22.38s0,.1,0,.13a2.39,2.39,0,0,0,1.25.27,9.24,9.24,0,0,0,1.49.05,16.68,16.68,0,0,0,2-.2c-.38.35-.76.71-1.15,1.05l-.35.29-.18,0c-.44,0-.89,0-1.33,0l-1.34.1a5.47,5.47,0,0,0-.69,0,4.44,4.44,0,0,0-.62.19.11.11,0,0,0,0,.2,4.61,4.61,0,0,0,.62.14,5.32,5.32,0,0,0,.69,0h1.39l.52,0c-.25.19-.5.38-.76.55s-.76.51-1.12.79Zm6.15-1.9c0,.57-.05,1.15-.09,1.72,0,.29,0,.58-.06.86a3.88,3.88,0,0,1-.33,1.38c-.51,1.05-1.56,1.26-3,2.06-.72.4-1.47.78-2.21,1.16a7.13,7.13,0,0,1,.15-1,10.14,10.14,0,0,1,.44-1.42c.1-.24.21-.47.29-.71a3.9,3.9,0,0,0,.1-.85.77.77,0,0,0-.29-.6,8.81,8.81,0,0,0,.82-.69l.68-.63c0,.16-.09.31-.13.46A13.56,13.56,0,0,0,151,142a3.38,3.38,0,0,0,.09,1.55.21.21,0,0,0,.35.1,3.38,3.38,0,0,0,.68-1.35,12.32,12.32,0,0,0,.35-1.6c.06-.49.13-1,.17-1.46,0-.13,0-.28.05-.43h0c.19-.17.37-.36.55-.54,0,.25-.06.49-.08.73a7.94,7.94,0,0,0,0,1.38,2.76,2.76,0,0,0,.11.7,2.13,2.13,0,0,0,.14.35,3,3,0,0,1,.22.28.11.11,0,0,0,.19,0c.05-.12.14-.21.19-.33a2.68,2.68,0,0,0,.07-.27,4.06,4.06,0,0,0,.09-.7c0-.44.07-.88.1-1.33s.09-.84.17-1.26a4.59,4.59,0,0,0,.1-.9c.11-.14.24-.26.36-.4C154.88,137.23,154.88,138,154.86,138.68Zm22.71-20.5c-.31,1-.65,2-1,2.93s-.72,1.94-1.14,2.88l-.09-.37c-.14-.53-.29-1.05-.45-1.57a3,3,0,0,0-.77-1.57l.11-.16c.08-.1,0-.26-.17-.23a5.22,5.22,0,0,1-.57.11,3.78,3.78,0,0,0-1.34-.34c-.52-.1-1-.22-1.55-.36-.27-.07-.52-.17-.79-.25A39,39,0,0,1,178,117,11.68,11.68,0,0,0,177.57,118.18Z"/><path class="cls-10" d="M182.76,114.05a7.46,7.46,0,0,0-4.21-3.93,8,8,0,0,0-6.48.67,8.78,8.78,0,0,0-2.61,2.32c-.6.81-1.56,2.14-.84,3.14a.84.84,0,0,0,1.55-.42,3.34,3.34,0,0,1,1-1.77,7.89,7.89,0,0,1,1.86-1.6,6.09,6.09,0,0,1,5-.58c3.05,1,4.35,4.59,3.74,7.55a4,4,0,0,1-1.43,2.53c-.58.41-1.91.83-1.65,1.78a.87.87,0,0,0,.59.6c2.55.56,4-2.45,4.32-4.52A9.66,9.66,0,0,0,182.76,114.05Z"/><path class="cls-10" d="M189.25,116.42c-.3-5.35-3.37-10.61-8.44-12.72a13.88,13.88,0,0,0-15.08,3.15,15.12,15.12,0,0,0-4.13,8.3,16.5,16.5,0,0,0,0,4.81c.23,1.62.54,3.48,1.67,4.73a.39.39,0,0,0,.66-.27,27.36,27.36,0,0,0-.67-3.57,16.16,16.16,0,0,1-.08-4.17,14.4,14.4,0,0,1,2.55-6.8,12.36,12.36,0,0,1,12.4-5.24c4.85,1,8,5.09,8.74,9.86A15.44,15.44,0,0,1,186,122c-.81,2.36-1.77,5-3.66,6.71a9.93,9.93,0,0,1-7.5,2.27,15.75,15.75,0,0,1-4-1,22.4,22.4,0,0,0-4.09-1.64c-.64-.1-1.46.59-1,1.26,1.68,2.27,5.2,3.25,7.89,3.62a13.75,13.75,0,0,0,8.21-1.27C187.28,129.12,189.56,122.1,189.25,116.42Z"/><path class="cls-10" d="M107.79,233.64l-2.46,0a6.09,6.09,0,0,0-.74,0c0-.2-.06-.38-.08-.56a10.27,10.27,0,0,0-.42-1.72,7.9,7.9,0,0,0-.77-1.67c-.11-.19-.24-.41-.38-.61a8.47,8.47,0,0,0,.79-.67,16,16,0,0,0,1.29-1.31,1,1,0,0,0,.15-1.18,8.29,8.29,0,0,0-3.93-3.58,1,1,0,0,0-1.11.15c-.39.45-.79.89-1.18,1.33-.2.22-.41.43-.61.64l-.22.23a5.9,5.9,0,0,0-2-.81,8.24,8.24,0,0,0-.85-.11c0-.24,0-.47,0-.68,0-.5,0-1,0-1.52,0-1.06.15-2.62-1.16-3a4.42,4.42,0,0,0-1.58,0l-1.52.16c-.68.07-1.46.05-1.87.71a3.85,3.85,0,0,0-.39,1.43,9.88,9.88,0,0,0-.09,2.82h-.07a6.38,6.38,0,0,0-1.54.47,7.6,7.6,0,0,0-1.18.75l-.15-.23c-.16-.26-.32-.53-.5-.78a11.21,11.21,0,0,0-1.13-1.51,1.84,1.84,0,0,0-2-.53A6.49,6.49,0,0,0,80.56,223c-.48.38-1,.74-1.44,1.13a1.51,1.51,0,0,0-.19,2.13L80,227.82a5.13,5.13,0,0,0,.65.88l.06,0a.43.43,0,0,0,0,.07c-.19.31-.37.62-.53.95a9.67,9.67,0,0,0-.76,2.13l-.06.27a3.38,3.38,0,0,0-.45,0l-1.42.07a5.54,5.54,0,0,0-1.41.14,1.82,1.82,0,0,0-1.23,1.21,3.46,3.46,0,0,0-.07,1.28l.09,1.42c.06,1,0,2.44,1.33,2.47.25,0,.5,0,.74,0l.77,0a6,6,0,0,0,1.18-.08c0,.29,0,.57,0,.86a5.32,5.32,0,0,0,.28,1.86,5.12,5.12,0,0,0,.9,1.55l.13.14c-.26.25-.52.52-.77.78l-.7.78a2.48,2.48,0,0,0-.74,1.25c-.13,1,.75,1.59,1.39,2.2l1.71,1.6a1.14,1.14,0,0,0,1.37.18,16.54,16.54,0,0,0,1.52-1.25,5,5,0,0,0,.78-.89,5,5,0,0,0,.76.9,5.9,5.9,0,0,0,2.29,1.31,2.11,2.11,0,0,0,.66.1,7.81,7.81,0,0,0-.14,1,1.62,1.62,0,0,0,.4,1.4,2.13,2.13,0,0,0,1.24.45c.87.14,1.73.27,2.6.37a2.22,2.22,0,0,0,1.39-.13,2.06,2.06,0,0,0,.86-1.3,7.46,7.46,0,0,0,.29-1.22c0-.28.08-.56.11-.84,0-.08,0-.15,0-.23a5.94,5.94,0,0,0,2.37-.64,6.68,6.68,0,0,0,1.4-.9,13.6,13.6,0,0,0,1.19,1.09,2.06,2.06,0,0,0,2.6-.16c.73-.48,1.45-1,2.14-1.48a1.8,1.8,0,0,0,.77-1,1.62,1.62,0,0,0-.4-1.31,10.32,10.32,0,0,0-2.14-2.29l.17-.15a3.8,3.8,0,0,0,.7-1.18,10.68,10.68,0,0,0,.33-1.14c0-.15.06-.31.1-.47l.22,0c.52,0,1,0,1.57,0a3.16,3.16,0,0,0,1.37-.17,1.24,1.24,0,0,0,.73-1.06,11.91,11.91,0,0,0,.29-1.67c.13-.77.21-1.54.28-2.31A1.06,1.06,0,0,0,107.79,233.64ZM106.72,238a9.61,9.61,0,0,1-1.2,0,5.66,5.66,0,0,0-1.79.07,1,1,0,0,0-1.14.42,3.58,3.58,0,0,0-.25,1.26,8.42,8.42,0,0,1-.22,1.09,10,10,0,0,0-.2,1.09,1.85,1.85,0,0,0,0,.47.85.85,0,0,0-.53.35c-.6.77.45,1.5.94,1.95a10.32,10.32,0,0,1,.8.82l.25.31,0,0-.19.15-.69.47-.62.41a2.89,2.89,0,0,0-.61.39h0c-.15-.16-.36-.3-.52-.44-.37-.33-.72-.68-1.06-1a1,1,0,0,0-1.41,0,9.4,9.4,0,0,1-1.72,1.35c-.64.41-1.35.65-2,1h0a1.07,1.07,0,0,0-1.55.61,3.82,3.82,0,0,0-.15.82,2.45,2.45,0,0,1,0,.27s0,.08,0,.12a5.46,5.46,0,0,1-.2.91l-1.15-.11-1.23-.07h-.09a8.39,8.39,0,0,0-.13-1,2.66,2.66,0,0,0-.16-.55,1.69,1.69,0,0,0-.35-.57.36.36,0,0,0-.46,0,1,1,0,0,0-.18-.13,3,3,0,0,0-.66-.27l-.25-.08-.12,0-.13-.05.09,0a2,2,0,0,1-.51-.25c-.19-.1-.37-.21-.55-.32a6.33,6.33,0,0,1-.54-.36h0l-.15-.12-.21-.16,0,0,0,0c-.16-.13-.31-.28-.46-.42a.85.85,0,0,0-.62-.22,1,1,0,0,0-.65-.3c-.78,0-1.2.56-1.7,1.05l-.46.43-.67-.62-.73-.68L80.4,246l.13-.15c.2-.24.4-.48.61-.71l.6-.66c.11-.12.23-.23.34-.36a2.25,2.25,0,0,0,.37-.68.94.94,0,0,0-.66-1.18c-.19-.17-.39-.33-.55-.5l-.14-.16,0,0a3,3,0,0,1-.2-.29l-.17-.31a.61.61,0,0,1,0-.12.51.51,0,0,1,0-.1,4.48,4.48,0,0,1-.23-1.5c0-.66.1-1.51-.54-1.92a.45.45,0,0,0-.26,0,.77.77,0,0,0-.18-.18,1.87,1.87,0,0,0-1-.16,6.07,6.07,0,0,0-.94.13l-.63.12-.21,0c0-.15,0-.29,0-.44,0-.38,0-.75,0-1.12s0-.74,0-1.1v-.12s0-.07,0-.1h0l.25,0,1.12-.08c.39,0,.79,0,1.18-.08a1.55,1.55,0,0,0,.83-.34,1.07,1.07,0,0,0,.25,0,1.15,1.15,0,0,0,.73-.85,16,16,0,0,1,.57-2c0-.1.07-.2.11-.3l0-.11h0a5.52,5.52,0,0,1,.26-.55,2.83,2.83,0,0,0,.51-1.36.59.59,0,0,0-.07-.26,2.41,2.41,0,0,0-.52-1.4c-.29-.42-.59-.83-.88-1.24-.06-.07-.11-.15-.16-.22l1-.8.6-.48.15-.12.09.11c.33.45.65.91,1,1.34a5.73,5.73,0,0,0,1.1,1.2.91.91,0,0,0,.31.12.51.51,0,0,0,.21.06l.27,0a1.38,1.38,0,0,0,.52-.17c.2-.11.38-.23.57-.35s.41-.25.62-.36l.31-.14c.07,0,.15-.07,0,0l.32-.14.28-.13h0l.18-.07c.22-.08.45-.15.68-.21s.39-.07.58-.12a.87.87,0,0,0,.37-.09l0,0a.88.88,0,0,0,.46-.8,19.71,19.71,0,0,1,0-2.43l0-.21a1.49,1.49,0,0,1,0-.17l.12-.61.15,0,2.27-.22,0,1.11c0,.47,0,.95,0,1.42,0,.23,0,.46,0,.69a1.4,1.4,0,0,0,.33,1.13.81.81,0,0,0,.8.22h0l.26,0,.16,0a5.26,5.26,0,0,1,1,.23l.21.07s.31.1.11,0a2.92,2.92,0,0,1,.47.23c.3.17.58.38.88.56a.87.87,0,0,0,1.11-.22,0,0,0,0,1,0,0c.59,0,1.11-.65,1.52-1s.54-.54.8-.81a3.23,3.23,0,0,1,.41.22l.27.19.14.1c.14.11.27.23.4.35a5.14,5.14,0,0,1,.4.41l.19.21.1.12c.09.12.16.25.24.37-.25.24-.48.48-.74.7l-.33.28-.22.17a2.19,2.19,0,0,0-.79,1,.82.82,0,0,0,.3.87,8.25,8.25,0,0,0,.55,1.2c.18.43.36.94.51,1.41a9.26,9.26,0,0,1,.35,1.56v.08l0,.21,0,.42a2.48,2.48,0,0,0,.17,1.07.84.84,0,0,0,.21.21v0a1.25,1.25,0,0,0,.69.52,3,3,0,0,0,1.46,0l1.43-.15c0,.25,0,.5,0,.75s.06.6.08.91c0,.13,0,.28,0,.43Z"/><path class="cls-10" d="M96.58,231.6A5.72,5.72,0,0,0,92,229.66a6.25,6.25,0,0,0-2,.56,6.4,6.4,0,0,0-1.6.77,6.3,6.3,0,0,0-2.49,3.19c-.91,2.59-.07,6.26,2.5,7.61a7.12,7.12,0,0,0,8.53-1.29,5.79,5.79,0,0,0,1.5-4.24A8,8,0,0,0,96.58,231.6Zm-1.3,6.8a3.88,3.88,0,0,1-2,1.54,6.16,6.16,0,0,1-3.3.13,3.55,3.55,0,0,1-1.3-.5,3.06,3.06,0,0,1-.85-1.21,5.24,5.24,0,0,1-.41-2.82c.38-2.66,4.75-4.15,6.77-2.52a4.69,4.69,0,0,1,1.46,2.68A3.57,3.57,0,0,1,95.28,238.4Z"/><path class="cls-10" d="M130.56,219.68l-2,0H128l-.06-.44a9.4,9.4,0,0,0-.34-1.39,6.25,6.25,0,0,0-.62-1.34l-.3-.49a6.67,6.67,0,0,0,.64-.53c.36-.34.7-.69,1-1.06a.82.82,0,0,0,.12-.94,6.56,6.56,0,0,0-3.15-2.87.78.78,0,0,0-.9.11c-.31.36-.63.72-1,1.07-.16.17-.32.35-.49.52l-.17.18a4.79,4.79,0,0,0-1.57-.65,5.43,5.43,0,0,0-.69-.09c0-.19,0-.38,0-.54,0-.41,0-.82,0-1.22,0-.85.13-2.11-.93-2.39a3.4,3.4,0,0,0-1.27,0l-1.22.13c-.54.05-1.17,0-1.5.57a3.17,3.17,0,0,0-.31,1.14,7.85,7.85,0,0,0-.07,2.27h-.06a5.39,5.39,0,0,0-1.24.38,6.52,6.52,0,0,0-.94.6l-.12-.18c-.13-.21-.26-.43-.4-.63a8.9,8.9,0,0,0-.91-1.21,1.51,1.51,0,0,0-1.58-.43,5,5,0,0,0-1.32.93c-.39.3-.78.59-1.16.9a1.22,1.22,0,0,0-.16,1.71l.87,1.23a4,4,0,0,0,.53.7l0,0,0,.06c-.15.24-.29.5-.42.76a8.14,8.14,0,0,0-.62,1.71,2.25,2.25,0,0,1-.05.22h-.36l-1.13.05a4.38,4.38,0,0,0-1.14.12,1.48,1.48,0,0,0-1,1,3,3,0,0,0,0,1c0,.38,0,.76.07,1.14,0,.77,0,2,1.07,2l.6,0h.61a3.86,3.86,0,0,0,1-.06c0,.23,0,.46,0,.69a4,4,0,0,0,1,2.74l.1.11c-.21.2-.41.41-.61.63s-.38.41-.57.63a2,2,0,0,0-.59,1c-.1.79.6,1.27,1.12,1.76l1.37,1.29a.92.92,0,0,0,1.1.14,13,13,0,0,0,1.22-1A3.77,3.77,0,0,0,112,231a4.3,4.3,0,0,0,.61.73,4.87,4.87,0,0,0,1.85,1.05,1.77,1.77,0,0,0,.52.07,5.18,5.18,0,0,0-.11.79,1.27,1.27,0,0,0,.32,1.12,1.72,1.72,0,0,0,1,.36c.69.12,1.39.22,2.08.3a1.8,1.8,0,0,0,1.12-.11,1.61,1.61,0,0,0,.69-1,6.64,6.64,0,0,0,.23-1c0-.22.07-.45.09-.68a1.09,1.09,0,0,0,0-.18,4.84,4.84,0,0,0,1.91-.51,5.38,5.38,0,0,0,1.12-.73,9.91,9.91,0,0,0,1,.88,1.65,1.65,0,0,0,2.09-.13c.58-.38,1.15-.77,1.71-1.19a1.35,1.35,0,0,0,.61-.81,1.26,1.26,0,0,0-.31-1.05,8.47,8.47,0,0,0-1.72-1.84,1.42,1.42,0,0,0,.13-.12,2.73,2.73,0,0,0,.56-.94,7.45,7.45,0,0,0,.27-.92c0-.12,0-.25.08-.38l.18,0,1.26,0a2.55,2.55,0,0,0,1.1-.14,1,1,0,0,0,.59-.85,12.1,12.1,0,0,0,.23-1.34c.11-.61.17-1.23.22-1.85A.84.84,0,0,0,130.56,219.68Zm-.86,3.5a6.16,6.16,0,0,1-1,0,4.56,4.56,0,0,0-1.43.06.76.76,0,0,0-.92.33,2.67,2.67,0,0,0-.2,1,8.57,8.57,0,0,1-.18.88,8.52,8.52,0,0,0-.16.88,1.15,1.15,0,0,0,0,.37.72.72,0,0,0-.43.28c-.48.62.36,1.21.76,1.57.22.21.44.43.64.66l.2.25v0l-.15.12-.55.38-.5.33a2.71,2.71,0,0,0-.49.31h0c-.12-.13-.28-.24-.41-.36a11.1,11.1,0,0,1-.85-.83.81.81,0,0,0-1.13,0,7.21,7.21,0,0,1-1.39,1.08c-.51.33-1.08.52-1.6.83h0a.86.86,0,0,0-1.24.49,2.41,2.41,0,0,0-.12.66c0,.07,0,.14,0,.21s0,.07,0,.1a4.52,4.52,0,0,1-.16.73l-.92-.09-1-.05h-.07a7.28,7.28,0,0,0-.1-.8,3.19,3.19,0,0,0-.13-.44,1.53,1.53,0,0,0-.28-.46.3.3,0,0,0-.37,0l-.15-.1a3.33,3.33,0,0,0-.52-.21l-.21-.07-.1,0-.1,0,.07,0a1.42,1.42,0,0,1-.41-.2l-.44-.25c-.15-.09-.29-.19-.43-.29h0l-.12-.1-.17-.12,0,0,0,0-.38-.34a.71.71,0,0,0-.5-.18.77.77,0,0,0-.51-.24c-.63,0-1,.45-1.37.85l-.37.34-.54-.5-.58-.55-.07-.06.1-.12c.16-.19.32-.39.49-.57l.48-.53a3.71,3.71,0,0,0,.27-.29,1.74,1.74,0,0,0,.3-.55.75.75,0,0,0-.53-.94,5.89,5.89,0,0,1-.44-.41l-.11-.12,0,0c-.06-.08-.11-.16-.16-.24l-.14-.25a.36.36,0,0,0,0-.09.41.41,0,0,0,0-.08,3.78,3.78,0,0,1-.18-1.21c0-.53.08-1.21-.43-1.54a.39.39,0,0,0-.21,0,.66.66,0,0,0-.15-.14,1.43,1.43,0,0,0-.82-.13,3.88,3.88,0,0,0-.75.11l-.51.09-.16,0c0-.12,0-.24,0-.36,0-.3,0-.6,0-.9s0-.59,0-.88v-.1a.24.24,0,0,1,0-.08h.21l.9-.07c.32,0,.63,0,.94-.06a1.18,1.18,0,0,0,.67-.28.65.65,0,0,0,.2,0,.91.91,0,0,0,.59-.68,15,15,0,0,1,.46-1.62l.09-.24,0-.09h0c.06-.15.13-.3.2-.44a2.37,2.37,0,0,0,.42-1.09.83.83,0,0,0-.06-.21,1.9,1.9,0,0,0-.42-1.13l-.71-1-.13-.18.81-.64.48-.39.12-.09a.25.25,0,0,1,.07.08c.27.37.52.74.81,1.08a4.25,4.25,0,0,0,.88,1,.6.6,0,0,0,.25.1.34.34,0,0,0,.17.05l.22,0a1,1,0,0,0,.41-.13,5.11,5.11,0,0,0,.46-.28,5,5,0,0,1,.5-.29l.24-.12c.06,0,.12,0,0,0l.25-.11.23-.11h0l.14-.06.55-.17c.15,0,.31-.06.46-.09a.9.9,0,0,0,.3-.08h0a.76.76,0,0,0,.37-.64,14.09,14.09,0,0,1,0-1.95c0-.06,0-.12,0-.18a.83.83,0,0,1,0-.13l.09-.49.12,0c.61-.05,1.22-.12,1.82-.18q0,.45,0,.9c0,.38,0,.76,0,1.14a5.07,5.07,0,0,1,0,.55,1.1,1.1,0,0,0,.27.9.62.62,0,0,0,.64.18h0l.21,0h.13a4.23,4.23,0,0,1,.76.19,1.15,1.15,0,0,1,.17.06l.09,0a2.12,2.12,0,0,1,.37.18c.25.14.47.31.71.45a.7.7,0,0,0,.89-.18,0,0,0,0,0,0,0c.47,0,.89-.52,1.22-.82s.43-.43.65-.65c.1.06.22.11.32.18l.22.15.11.08.33.28.32.33.15.17a.3.3,0,0,0,.08.09c.07.1.12.21.19.31l-.59.56-.27.22-.18.13a1.82,1.82,0,0,0-.63.82.64.64,0,0,0,.24.69,6.63,6.63,0,0,0,.44,1,11.52,11.52,0,0,1,.41,1.13,7.8,7.8,0,0,1,.29,1.25v.07a.88.88,0,0,1,0,.16c0,.12,0,.23,0,.34a2.11,2.11,0,0,0,.15.86.52.52,0,0,0,.16.17v0a1,1,0,0,0,.55.42,2.57,2.57,0,0,0,1.17,0l1.16-.12q0,.3,0,.6c0,.24,0,.49.06.73a2,2,0,0,1,0,.35A.37.37,0,0,1,129.7,223.18Z"/><path class="cls-10" d="M121.56,218a4.54,4.54,0,0,0-3.65-1.55,5.07,5.07,0,0,0-1.65.44,5.31,5.31,0,0,0-1.29.62,5.13,5.13,0,0,0-2,2.56c-.73,2.08,0,5,2,6.11a5.74,5.74,0,0,0,6.85-1,4.68,4.68,0,0,0,1.2-3.41A6.34,6.34,0,0,0,121.56,218Zm-1,5.45a3.1,3.1,0,0,1-1.58,1.25,5,5,0,0,1-2.65.09,2.59,2.59,0,0,1-1-.4,2.34,2.34,0,0,1-.68-1,4.12,4.12,0,0,1-.33-2.27c.3-2.14,3.81-3.33,5.43-2a3.76,3.76,0,0,1,1.17,2.15A2.85,2.85,0,0,1,120.52,223.49Z"/><path class="cls-11" d="M54,320.49c-1.5,2.57-2.35,5.58-3.53,8.31s-2.36,5.27-3.6,7.89c-2.5,5.31-5,10.62-7.28,16-4.53,10.87-7.7,22.3-6.9,34.18a58.13,58.13,0,0,0,1.56,10.17c.78,3.13,1.58,6.64,3.81,9.07a.58.58,0,0,0,1-.4c-.14-2.93-1.36-5.67-2.06-8.48a62.72,62.72,0,0,1-1.59-9,59.76,59.76,0,0,1,.86-17.4c2.22-11.23,7.28-21.53,11.9-31.92,1.27-2.86,2.53-5.72,3.71-8.61s2.82-6.17,3.25-9.37C55.23,320.32,54.41,319.84,54,320.49Z"/><path class="cls-11" d="M149.9,396.23c-1.68,1-3.43,1.9-5.13,2.87a39.54,39.54,0,0,0-4.86,3.49c-3.06,2.44-6,5.05-9.17,7.36a107.06,107.06,0,0,1-20.25,11.75,78.65,78.65,0,0,1-23.63,5.91,115.64,115.64,0,0,1-13.4,1,36.5,36.5,0,0,1-10.87-1.89,40.51,40.51,0,0,1-10.73-5.5,49.29,49.29,0,0,1-4.74-3.92c-1.43-1.32-2.58-3-4.22-4a.12.12,0,0,0-.17.14,5,5,0,0,0,1,2.13c.53.72,1.08,1.43,1.65,2.12a31,31,0,0,0,3.94,4,39.33,39.33,0,0,0,9.35,5.92c7.5,3.38,15.53,4.14,23.67,3.56,8.71-.62,17.32-1.85,25.53-4.92,7.7-2.89,14.64-7.05,21.45-11.59,3.77-2.52,7.57-5.05,11.17-7.82a60.48,60.48,0,0,0,5.4-4.58c1.66-1.63,3-3.56,4.58-5.29C150.79,396.57,150.36,396,149.9,396.23Z"/><path class="cls-11" d="M121.39,328.61a11.86,11.86,0,0,0-.9-1.21,12.41,12.41,0,0,0-1.21-.92c-1-.69-2-1.32-3.07-2-1.88-1.16-3.79-2.25-5.73-3.3-3.9-2.09-7.88-4.06-12-5.76a46,46,0,0,0-12.84-3.59,42,42,0,0,0-12.89.82,57.64,57.64,0,0,0-7.18,2.05,29.68,29.68,0,0,0-6.79,3,.53.53,0,0,0,.41,1c2-.51,4-1.43,6-2.11s4-1.3,6.09-1.8a42.89,42.89,0,0,1,12.86-1.28,35.82,35.82,0,0,1,12.54,3.4c4,1.77,7.86,3.63,11.64,5.75,2,1.16,4.08,2.37,6.08,3.61,1,.63,2.06,1.29,3.08,2,.5.33,1,.67,1.55.95a10.47,10.47,0,0,0,1.73.53C121.43,329.93,121.77,329.08,121.39,328.61Z"/><path class="cls-12" d="M95.28,201a8.16,8.16,0,0,0-2.72.78c-.87.44-1.74.88-2.63,1.29a51.9,51.9,0,0,1-5.1,2,55.29,55.29,0,0,1-11.26,2.62c-5.54.64-12.4,1.17-17.6-1.12a10.89,10.89,0,0,0-4.52-1.22c-.2,0-1.94.93-1.36.93a19.09,19.09,0,0,0,1.14,2.91,2.64,2.64,0,0,0,.88,1.22,7,7,0,0,0,.74,1.38c1.34,1.92,2.82,3.73,4.09,5.71A69.31,69.31,0,0,1,63.29,230a70.52,70.52,0,0,1,4.77,27.45,74.91,74.91,0,0,1-.68,7.91c-.35,2.6-.5,5.17-.63,7.79a.49.49,0,0,0,.91.24,23,23,0,0,0,2.45-6.45A53.64,53.64,0,0,0,71,260a69.18,69.18,0,0,0-.53-14.09A66.73,66.73,0,0,0,60.9,219.6a72.7,72.7,0,0,0-4.54-6.36c-.85-1.06-1.78-2.06-2.54-3.18-.08-.12-.15-.24-.22-.36v0s0,0,0,0a.87.87,0,0,0-.29-.43,5.77,5.77,0,0,1-.35-.76,51.34,51.34,0,0,0,21.87,1.84A57.63,57.63,0,0,0,86,207.8c1.84-.62,3.65-1.35,5.42-2.15.89-.41,1.77-.82,2.63-1.29a6.22,6.22,0,0,0,2.06-1.89A.86.86,0,0,0,95.28,201Z"/><path class="cls-12" d="M102,302.36a12.18,12.18,0,0,0-2.07-1.44,23.53,23.53,0,0,0-2.48-.88A32.82,32.82,0,0,0,92.58,299a43.92,43.92,0,0,0-10.25-.2,70,70,0,0,0-10.64,1.92c-1.86.47-3.72,1-5.55,1.55-1.09.34-2.29.65-3.42,1.07.44-1.8.7-3.7,1.09-5.48.51-2.33,1.07-4.66,1.55-7s1-4.69,1.47-7c.4-1.89,1.33-4.19.51-6.06a.06.06,0,0,0-.09,0c-1.62,1.24-1.9,3.67-2.42,5.53-.67,2.38-1.32,4.77-2,7.15s-1.15,4.81-1.68,7.22a51.38,51.38,0,0,0-1.46,7.12A1.1,1.1,0,0,0,61,305.92a1,1,0,0,0,.41.09,19.93,19.93,0,0,0,4.94-1.16c1.69-.47,3.38-1,5.09-1.4a67.66,67.66,0,0,1,10.66-2,42,42,0,0,1,9.7.13,31.82,31.82,0,0,1,4.75,1c.77.22,1.52.48,2.28.76s1.69.33,2.53.59S102.8,302.9,102,302.36Z"/><path class="cls-12" d="M211.46,257a14.68,14.68,0,0,0-1.5,2.75c-.41,1.09-.72,2.2-1.05,3.31q-.9,3.11-1.81,6.19c-1.23,4.2-2.42,8.42-3.64,12.62s-2.44,8.42-3.67,12.62c-.61,2.06-1.21,4.12-1.82,6.18s-1.46,4.42-1.94,6.66a1.4,1.4,0,0,0,0,.45c-.56.42-1.19.7-1.75,1.15s-.92.91-1.4,1.34c-1,.95-2.25,1.78-3.36,2.67a54,54,0,0,1-22.56,11,44,44,0,0,1-18-.35,79.63,79.63,0,0,1-18.66-6.74c-6.84-3.35-13.17-7.4-19.64-11.38-.81-.5-1.78.69-1,1.34a91.11,91.11,0,0,0,17.68,11.54,93.55,93.55,0,0,0,19.54,7.83,49.68,49.68,0,0,0,19.07,1.33,59.52,59.52,0,0,0,8.78-1.63,43.83,43.83,0,0,0,8.37-3.5,47.58,47.58,0,0,0,8.45-5.73,24.45,24.45,0,0,0,3.42-3.7c.48-.62,1.09-1.13,1.53-1.78a20.6,20.6,0,0,0,1.08-2.34,1.27,1.27,0,0,0,.84-.81c.83-2.14,1.36-4.44,2-6.64s1.21-4.12,1.81-6.19q1.83-6.3,3.65-12.62c1.2-4.21,2.41-8.42,3.56-12.64s2.77-8.41,2.63-12.73A.32.32,0,0,0,211.46,257Z"/><path class="cls-12" d="M107.39,193.08a1.71,1.71,0,0,0-.81.09,5.8,5.8,0,0,0-.66.33,4.48,4.48,0,0,0-.64.43l-.07.06,0,0-.23.18c-.69.52-1.4,1-2.11,1.52a15.36,15.36,0,0,0-2.08,1.69,7.41,7.41,0,0,0-.77.91c0,.06-.11.12-.16.19v0h0s0,0,0,0,0,0,0,0h0l0,0h0a.39.39,0,0,0-.08.52.91.91,0,0,0,.92.37,8,8,0,0,0,2.93-1,25,25,0,0,0,2.46-1.64c.89-.64,2.09-1.34,2.28-2.51A1,1,0,0,0,107.39,193.08Z"/><polygon class="cls-12" points="99.83 198.53 99.83 198.53 99.82 198.53 99.82 198.53 99.83 198.53"/><path class="cls-12" d="M99.8,198.54s0,0,0,0l0,0Z"/><path class="cls-13" d="M78.55,69.91A66.94,66.94,0,0,0,71.82,72a65.19,65.19,0,0,0-6.2,2.49,83,83,0,0,0-12.17,6.74A69.79,69.79,0,0,0,34.9,99a53.49,53.49,0,0,0-3.75,6.2c-.52,1-1,2.05-1.46,3.1a8.32,8.32,0,0,0-.56,1.66,8.17,8.17,0,0,0,0,1.85.63.63,0,0,0,1.06.43,10.34,10.34,0,0,0,1.68-2.2c.44-.9.82-1.84,1.26-2.74a53.92,53.92,0,0,1,3.1-5.43,60,60,0,0,1,7.84-9.58c6.17-6.16,13.52-10.89,21.18-15,2.2-1.18,4.46-2.27,6.67-3.42s4.64-2.2,6.87-3.45C79.1,70.3,78.88,69.84,78.55,69.91Z"/><path class="cls-13" d="M44,191c-.23-.54-.23-1.11-.41-1.67a8.41,8.41,0,0,0-.77-1.49c-.6-1-1.16-2.12-1.67-3.21-1.06-2.24-2-4.55-2.88-6.86-1.85-4.7-3.67-9.42-5.26-14.22a99.94,99.94,0,0,1-5.54-29.63,63,63,0,0,1,.37-8.13c.31-2.83,1.07-5.61,1.35-8.43a.55.55,0,0,0-1-.27,26.62,26.62,0,0,0-2,7.3,66.85,66.85,0,0,0-.78,7.2,73,73,0,0,0,1,15.2c1.65,10.36,5.06,20.37,8.84,30.12,1,2.61,2,5.22,3.16,7.78.55,1.24,1.14,2.47,1.79,3.66a12.56,12.56,0,0,0,1.11,1.83A13.65,13.65,0,0,0,43,191.59C43.41,192,44.28,191.6,44,191Z"/><path class="cls-13" d="M137.79,163c-3.48.64-6.58,2.39-10,3.2-3.19.75-6.25,2.55-9.14,4.05a164.41,164.41,0,0,0-17.1,10.48c-10.37,7.1-21.27,15-34.14,16.33a33.81,33.81,0,0,1-9.79-.3,26.39,26.39,0,0,1-4.69-1.33c-1.48-.58-2.83-1.65-4.45-1.61a.36.36,0,0,0-.31.54c.57,1.29,1.71,1.77,2.94,2.36a29.11,29.11,0,0,0,4.25,1.63,31.94,31.94,0,0,0,8.85,1.28,45.84,45.84,0,0,0,18-3.78c12.56-5.26,23-14.4,34.78-21.13,3.45-2,7.12-3.57,10.56-5.55.8-.46,1.51-1,2.3-1.49a20.64,20.64,0,0,1,3.13-1.44,47.2,47.2,0,0,0,5.19-2.32C138.7,163.63,138.33,162.9,137.79,163Z"/><path class="cls-13" d="M223.47,180.07c0-.95-.18-1.93-.25-2.81-.16-2.11-.37-4.2-.61-6.3q-.71-6.24-1.81-12.43a162.37,162.37,0,0,0-6.24-24.48c-.79-2.29-1.59-4.58-2.44-6.85-.72-1.9-1.3-4.68-2.91-6a.63.63,0,0,0-1.06.44c-.19,1.84.95,3.83,1.55,5.54.7,2,1.38,4,2,6,1.22,4,2.31,8,3.3,12a197.61,197.61,0,0,1,4.52,24.47c.2,1.74.36,3.48.52,5.22a36.93,36.93,0,0,0-4.57-4.62,93.15,93.15,0,0,0-13.89-9.86c-10.86-6.18-23.46-7.23-35.67-5.67a76,76,0,0,0-10.23,2.06q-2.46.66-4.86,1.49a10.64,10.64,0,0,0-4.27,2.31.27.27,0,0,0,.19.46,11.54,11.54,0,0,0,3.71-.65c1.48-.42,2.93-.93,4.42-1.32a78.94,78.94,0,0,1,8.59-1.8,77.55,77.55,0,0,1,17.62-.71,38.9,38.9,0,0,1,16.76,4.84A111.1,111.1,0,0,1,211.25,171a44.09,44.09,0,0,1,6,5.7,21.07,21.07,0,0,1,2.34,3.44c.68,1.25,1,2.63,2.09,3.56a1.3,1.3,0,0,0,2.14-.56A5,5,0,0,0,223.47,180.07Z"/><path class="cls-13" d="M188.44,55.45c-1.63.75-3.11,1.81-4.76,2.52a12.77,12.77,0,0,1-15-3.61c-2.6-3.12-3.42-7.35-3.9-11.27a40.73,40.73,0,0,1-.29-6.34,36.2,36.2,0,0,1,.82-6.74c.08-.31-.39-.54-.53-.23A18.75,18.75,0,0,0,163.11,35a34.19,34.19,0,0,0-.33,5.63,32.35,32.35,0,0,0,1.82,10.82C167,57.65,173.21,62,180,61.4c3.47-.32,7.73-1.71,9.26-5.11A.62.62,0,0,0,188.44,55.45Z"/><path class="cls-13" d="M7.08,12.13A16.28,16.28,0,0,0,4.34,16.9,50.66,50.66,0,0,0,.23,33,48.18,48.18,0,0,0,1.49,49.74a10.54,10.54,0,0,0,2.2,4.75.36.36,0,0,0,.62-.25,17.73,17.73,0,0,0-.88-5,50.12,50.12,0,0,1-1-5.3A51.45,51.45,0,0,1,2,33.16,49.76,49.76,0,0,1,3.87,22.55a46.91,46.91,0,0,1,1.9-5.29,39.87,39.87,0,0,0,2-4.72A.43.43,0,0,0,7.08,12.13Z"/><path class="cls-13" d="M61,46.48c-.15-.62-.93-.48-1.13,0-1,2.31-1.27,4.81-2,7.18a31.52,31.52,0,0,1-3.08,6.86A31.19,31.19,0,0,1,45.15,71.2c-8.44,5.56-19.8,6.28-28.44.77a25.42,25.42,0,0,1-6.2-5.73,25.1,25.1,0,0,1-2.36-3.66A40.89,40.89,0,0,0,6.29,58.9a.26.26,0,0,0-.48.13c0,2.5,1.46,5.19,2.75,7.28a24.77,24.77,0,0,0,5.09,5.9,25.8,25.8,0,0,0,14.83,5.9c11.27.85,21.71-5,27.77-14.33A35.32,35.32,0,0,0,60,55.43C60.88,52.6,61.73,49.45,61,46.48Z"/><path class="cls-11" d="M72,29.39a32.31,32.31,0,0,1,1-7.52,36.17,36.17,0,0,1,1.12-3.53A10.78,10.78,0,0,0,75.25,15a.46.46,0,0,0-.69-.39,6.6,6.6,0,0,0-1.81,3,26.79,26.79,0,0,0-1.24,3.7A33.74,33.74,0,0,0,71.09,37c.52,2.48,1.16,5.36,3,7.22.21.2.66.07.62-.26-.25-2.34-1.33-4.52-1.86-6.8A32,32,0,0,1,72,29.39Z"/><path class="cls-11" d="M109,39.42a.24.24,0,0,0-.37-.05,22.92,22.92,0,0,0-2.24,3c-.35.57-.75,1.11-1.15,1.65s-.54,1.07-.87,1.47a8.47,8.47,0,0,0-2.21,2.11,25.61,25.61,0,0,1-3.07,2.73,15.56,15.56,0,0,1-7.13,3,15,15,0,0,1-8-1.27,20.78,20.78,0,0,1-3.46-2c-1.12-.81-2.11-2.11-3.39-2.65a.41.41,0,0,0-.6.46c.44,1.67,2.28,3,3.58,4a19.56,19.56,0,0,0,4.88,2.85A15.09,15.09,0,0,0,96.15,55a24.24,24.24,0,0,0,9.07-6.79,5.31,5.31,0,0,0,.72-.85,1.43,1.43,0,0,0,.18-.67c0,.19.06.17.24-.08a23.66,23.66,0,0,0,1.94-2.38C109.34,42.66,110,41.15,109,39.42Z"/><path class="cls-11" d="M205.23,50.52c-1.54-.09-2.67,1.9-3.42,3a19.65,19.65,0,0,0-2.33,4.76,20.43,20.43,0,0,0-.95,5.09,18.52,18.52,0,0,0,0,2.58,14.39,14.39,0,0,0,.16,1.61,5.44,5.44,0,0,0,.57,1.36c.22.47.84.26,1-.13a5.36,5.36,0,0,0,.27-2.67,20.37,20.37,0,0,1-.06-2.47,17.91,17.91,0,0,1,.88-4.7,19.21,19.21,0,0,1,1.94-4.22,18.51,18.51,0,0,1,1.41-2,2.87,2.87,0,0,0,.87-1.89A.37.37,0,0,0,205.23,50.52Z"/><path class="cls-11" d="M223,74a.72.72,0,0,0-.87-.49c-1.16.33-1.57,1.33-2.16,2.29a13,13,0,0,1-2.25,2.82,8.24,8.24,0,0,1-6.47,1.89,10.36,10.36,0,0,1-6-2.91A16.76,16.76,0,0,1,203,74.93c-.64-1-1.09-2.05-1.79-3a.33.33,0,0,0-.61.16c0,2.44,1.6,5.11,3.22,6.84a11.89,11.89,0,0,0,7,3.74,10.43,10.43,0,0,0,7.7-1.81,13.28,13.28,0,0,0,2.95-3.17C222.32,76.61,223.35,75.34,223,74Z"/><path class="cls-12" d="M124,17.68c.18-.48-.51-.69-.77-.33-2.57,3.62-2.71,8.38-2.81,12.66a35.62,35.62,0,0,0,.27,6.28,12.53,12.53,0,0,0,.69,2.84,6.27,6.27,0,0,0,1.88,2.52c.25.22.71,0,.59-.35-.31-.93-.49-1.93-.78-2.88a19.83,19.83,0,0,1-.63-2.61,36.44,36.44,0,0,1-.28-6A35.63,35.63,0,0,1,124,17.68Z"/><path class="cls-12" d="M153.68,39.23a.59.59,0,0,0-1.09-.3,37.91,37.91,0,0,0-2.06,4,18.64,18.64,0,0,1-2.61,3.85,15.31,15.31,0,0,1-8.12,4.74,12.81,12.81,0,0,1-8.94-1.34,13.45,13.45,0,0,1-3.24-2.52,11,11,0,0,1-1.38-1.89c-.31-.52-.43-1-.93-1.32a.35.35,0,0,0-.5.21c-.33,1.23,1,2.95,1.65,3.89a12.75,12.75,0,0,0,3.44,3.27,14.06,14.06,0,0,0,9.87,1.89,16.75,16.75,0,0,0,9.46-5.06C151.5,46.27,154,42.66,153.68,39.23Z"/></g></g></svg>