<svg id="Group_1072" data-name="Group 1072" xmlns="http://www.w3.org/2000/svg" xmlns:xlink="http://www.w3.org/1999/xlink" width="121.089" height="122.872" viewBox="0 0 121.089 122.872">
  <defs>
    <clipPath id="clip-path">
      <rect id="Rectangle_737" data-name="Rectangle 737" width="121.089" height="122.872" transform="translate(0 0)" fill="none"/>
    </clipPath>
  </defs>
  <g id="Group_1071" data-name="Group 1071" clip-path="url(#clip-path)">
    <path id="Path_50220" data-name="Path 50220" d="M76.169,9.241a7.725,7.725,0,1,1-7.726-7.725A7.725,7.725,0,0,1,76.169,9.241Z" fill="none" stroke="#000" stroke-miterlimit="10" stroke-width="3.032"/>
    <path id="Path_50221" data-name="Path 50221" d="M73.322,41.565V56.812H58.279V22.252h2.068a19.548,19.548,0,0,1,13.821,5.724l5.659,5.66L93.448,20.015l2.539,2.539a5.9,5.9,0,0,1,0,8.341L83.222,43.659a5.518,5.518,0,0,1-7.805,0l-7.482-7.482" fill="none" stroke="#000" stroke-miterlimit="10" stroke-width="3.032"/>
    <path id="Path_50222" data-name="Path 50222" d="M57.843,21.744,45.984,34.34a4.4,4.4,0,0,0,.1,6.114l12.19,12.189" fill="none" stroke="#000" stroke-miterlimit="10" stroke-width="3.032"/>
    <path id="Path_50223" data-name="Path 50223" d="M65.16,65.954,75.6,76.391l-9.135,9.135,6.454,6.455L91.162,73.735,73.323,56.811,54.264,78.157H28.6L39.474,67.281h9.657l9.148-10.47" fill="none" stroke="#000" stroke-miterlimit="10" stroke-width="3.032"/>
    <path id="Path_50224" data-name="Path 50224" d="M39.681,66.9l-14.9,14.9a2.99,2.99,0,0,1-4.552-3.845l9.858-13.88Z" fill="none" stroke="#003cd8" stroke-miterlimit="10" stroke-width="3.032"/>
    <path id="Path_50225" data-name="Path 50225" d="M66.461,85.527l-5.184,5.185,12.749,12.75a2.023,2.023,0,0,0,3.257-2.3l-4.367-9.181Z" fill="none" stroke="#003cd8" stroke-miterlimit="10" stroke-width="3.032"/>
    <line id="Line_301" data-name="Line 301" x2="6.709" y2="6.709" transform="translate(87.934 25.53)" fill="none" stroke="#000" stroke-miterlimit="10" stroke-width="3.032"/>
    <path id="Path_50226" data-name="Path 50226" d="M41.919,105.35s-8.04-6.9,1.025-13.371" fill="none" stroke="#003cd8" stroke-miterlimit="10" stroke-width="3.27"/>
    <text id="_25_" data-name="25°" transform="translate(0.07 99.797)" fill="#000c29" font-size="11.731" font-family="Montserrat-ExtraBold, Montserrat" font-weight="800"><tspan x="0" y="0" letter-spacing="0.1em">2</tspan><tspan y="0" letter-spacing="0.096em">5</tspan><tspan y="0">°</tspan></text>
    <rect id="Rectangle_736" data-name="Rectangle 736" width="113.725" height="2.089" transform="translate(7.364 104.305)" fill="#000c29"/>
    <line id="Line_302" data-name="Line 302" x2="111.58" y2="46.088" transform="translate(2.767 75.383)" fill="none" stroke="#003cd8" stroke-miterlimit="10" stroke-width="3.032"/>
  </g>
</svg>
